TITLE "Samination - Mix 57 - Acid Journey Home"
PERFORMER "Various Artists"
FILE "samination_mix57-acid_journey_home.ogg" WAVE
	TRACK 01 AUDIO
		TITLE "Hyper Pressure"
		PERFORMER "ASK"
		INDEX 01 00:00:00
	TRACK 02 AUDIO
		TITLE "DJ's Unite Vol 1 (IckZee mix)"
		PERFORMER "Bee Trax"
		INDEX 01 04:19:00
	TRACK 03 AUDIO
		TITLE "Gloria"
		PERFORMER "Pastis and Xavi BCN"
		INDEX 01 09:01:00
	TRACK 04 AUDIO
		TITLE "The Journey (Angel-0A remix)"
		PERFORMER "Scott Brown"
		INDEX 01 13:53:00
	TRACK 05 AUDIO
		TITLE "Feel The Beat"
		PERFORMER "Audio Frenzy"
		INDEX 01 16:45:00
	TRACK 06 AUDIO
		TITLE "Sin"
		PERFORMER "hurce"
		INDEX 01 20:26:30
	TRACK 07 AUDIO
		TITLE "Scrap Shortage"
		PERFORMER "Ryu star"
		INDEX 01 22:11:00
	TRACK 08 AUDIO
		TITLE "Back To Paradise (Mr Ripley remix)"
		PERFORMER "Ferry Corsten"
		INDEX 01 24:16:00
	TRACK 09 AUDIO
		TITLE "C'mon Let's Go"
		PERFORMER "DJ Neutron"
		INDEX 01 28:37:00
	TRACK 10 AUDIO
		TITLE "Close My Eyes"
		PERFORMER "Smartyz"
		INDEX 01 31:24:00
	TRACK 11 AUDIO
		TITLE "Come Back Home"
		PERFORMER "S3RL vs Smartyz"
		INDEX 01 35:15:00
	TRACK 12 AUDIO
		TITLE "It Goes On & On (Sy & Unknown remix)"
		PERFORMER "Picco"
		INDEX 01 39:14:50
	TRACK 13 AUDIO
		TITLE "Roll With This (Leigh Outrage remix)"
		PERFORMER "Kevin Energy"
		INDEX 01 42:22:50
	TRACK 14 AUDIO
		TITLE "Ravin Angels"
		PERFORMER "Pulse"
		INDEX 01 46:06:00
	TRACK 15 AUDIO
		TITLE "Acid Carnage"
		PERFORMER "Furious"
		INDEX 01 49:55:00
	TRACK 16 AUDIO
		TITLE "Still Alive"
		PERFORMER "Evolutionize"
		INDEX 01 53:22:30
	TRACK 17 AUDIO
		TITLE "Galactic Prayer"
		PERFORMER "Toxic Teknique"
		INDEX 01 58:46:00
	TRACK 18 AUDIO
		TITLE "Army Of Me"
		PERFORMER "AniMe & Advanced Dealer"
		INDEX 01 62:08:30
	TRACK 19 AUDIO
		TITLE "Labyrinth"
		PERFORMER "Boot Of Fighters"
		INDEX 01 65:00:30
	TRACK 20 AUDIO
		TITLE "Another World"
		PERFORMER "Hellsystem"
		INDEX 01 69:03:00
	TRACK 21 AUDIO
		TITLE "Altar of Speed"
		PERFORMER "Kobaryo"
		INDEX 01 72:25:00
	TRACK 22 AUDIO
		TITLE "Digital Confession"
		PERFORMER "ASK"
		INDEX 01 74:36:20
